<svg xmlns="http://www.w3.org/2000/svg" xmlns:svg="http://www.w3.org/2000/svg" id="svg8" width="16" height="16" version="1.1" viewBox="0 0 16 16"><metadata id="metadata14"/><path id="path2" fill="#fc9c9c" fill-opacity=".996" d="M 8,1 A 7,7 0 0 0 1,8 7,7 0 0 0 8,15 7,7 0 0 0 15,8 7,7 0 0 0 8,1 Z M 6.2695,3.3125 C 5.43825,4.8497 5.001,6.4162 5,7.9941 4.35943,7.88159 3.6995,7.72252 3.0234,7.52144 a 5,5 0 0 1 3.2461,-4.209 z m 3.4629,0.00391 a 5,5 0 0 1 3.2383,4.1875 C 12.31883,7.67839 11.663,7.83258 10.998,7.95313 10.9896,6.39043 10.55506,4.83903 9.7324,3.31643 Z M 8,3.3242188 c 1.0126,1.593 1.5,3.1425 1.5,4.6758 0,0.054042 -0.00662,0.10803 -0.00781,0.16211 -0.96392,0.096801 -1.9566,0.1103 -2.9844,0.027344 -0.00163,-0.063192 -0.00781,-0.12632 -0.00781,-0.18945 0,-1.5333 0.48744,-3.0828 1.5,-4.6758 z m 4.8789,5.7578 A 5,5 0 0 1 9.7305,12.687519 c 0.57106,-1.0564 0.95277,-2.1268 1.1367,-3.2051002 0.68204,-0.10905 1.3556,-0.23789 2.0117,-0.40039 z m -9.7461,0.033203 c 0.68377,0.18153 1.3555,0.33345 2.0098,0.43164 0.18781,1.0551002 0.56647,2.1026002 1.125,3.1367002 A 5,5 0 0 1 3.1328,9.1151618 Z m 6.168,0.55469 C 9.07465,10.658572 8.64656,11.658312 8,12.675812 c -0.63811,-1.0042 -1.0645,-1.9908 -1.293,-2.9668002 0.89027,0.054126 1.7517,0.029377 2.5938,-0.039062 z" style="fill:#ff0;fill-opacity:.996078;stroke-width:2;stroke-linecap:round;stroke-linejoin:round"/><path id="path4" fill="#a5b7f3" d="M 8,1 V 3.3242 C 9.0126,4.9172 9.5,6.4667 9.5,8 9.5,8.054042 9.49338,8.10803 9.49219,8.16211 9.00279,8.211258 8.50506,8.239662 7.99999,8.244141 v 1.4922 c 0.43915,-0.0076 0.87287,-0.031628 1.3008,-0.066406 -0.22615,0.98866 -0.65424,1.9884 -1.3008,3.0059 v 2.3242 a 7,7 0 0 0 7.000001,-7 7,7 0 0 0 -7.000001,-7 z m 1.7324,2.3164 a 5,5 0 0 1 3.2383,4.1875 C 12.31883,7.67838 11.663,7.83257 10.998,7.95312 10.98955,6.39042 10.55506,4.83902 9.7324,3.31642 Z m 3.1465,5.7656 a 5,5 0 0 1 -3.1484,3.6055 c 0.57106,-1.0564 0.95277,-2.1268 1.1367,-3.2051 0.68204,-0.10905 1.3556,-0.23789 2.0117,-0.40039 z" style="fill:#fff200;fill-opacity:.99607843;stroke-width:2;stroke-linecap:round;stroke-linejoin:round"/></svg>